<svg width="64" height="64" viewBox="0 0 64 64" fill="none" xmlns="http://www.w3.org/2000/svg">
<rect width="64" height="64" fill="white"/>
<path d="M32 5L54 13V31C54 43 46.6667 52.3333 32 59C17.3333 52.3333 10 43 10 31V13L32 5Z" fill="url(#paint0_linear_1_7)" stroke="#1E40AF"/>
<path d="M37 33H27C25.8954 33 25 33.8954 25 35V43C25 44.1046 25.8954 45 27 45H37C38.1046 45 39 44.1046 39 43V35C39 33.8954 38.1046 33 37 33Z" fill="url(#paint1_linear_1_7)" stroke="#9CA3AF" stroke-width="0.5"/>
<path d="M28 33V27C28 25 29.3333 24 32 24C34.6667 24 36 25 36 27V33" stroke="url(#paint2_linear_1_7)" stroke-width="2" stroke-linecap="round"/>
<path d="M32 39.5C32.8284 39.5 33.5 38.8284 33.5 38C33.5 37.1716 32.8284 36.5 32 36.5C31.1716 36.5 30.5 37.1716 30.5 38C30.5 38.8284 31.1716 39.5 32 39.5Z" fill="#6B7280"/>
<path d="M32.8 38H31.2V42H32.8V38Z" fill="#6B7280"/>
<path d="M14 17C14 15.6667 14.6667 15 16 15H48C49.3333 15 50 15.6667 50 17V29C50 39.6667 44 48.3333 32 55C20 48.3333 14 39.6667 14 29V17Z" fill="white" fill-opacity="0.1"/>
<defs>
<linearGradient id="paint0_linear_1_7" x1="10" y1="5" x2="10" y2="5405" gradientUnits="userSpaceOnUse">
<stop stop-color="#6A41FF"/>
<stop offset="1" stop-color="#5530D9"/>
</linearGradient>
<linearGradient id="paint1_linear_1_7" x1="25" y1="33" x2="25" y2="1233" gradientUnits="userSpaceOnUse">
<stop stop-color="white"/>
<stop offset="1" stop-color="#F8FAFC"/>
</linearGradient>
<linearGradient id="paint2_linear_1_7" x1="28" y1="24" x2="28" y2="924" gradientUnits="userSpaceOnUse">
<stop stop-color="white"/>
<stop offset="1" stop-color="#F8FAFC"/>
</linearGradient>
</defs>
</svg>
